<svg width="26" height="16" viewBox="0 0 26 16" fill="none" xmlns="http://www.w3.org/2000/svg">
<path fill-rule="evenodd" clip-rule="evenodd" d="M14.6598 3.21554L25.75 0L22.9896 11.2122L19.5461 7.9064L13.9914 13.6925C13.8028 13.889 13.5423 14 13.27 14C12.9977 14 12.7372 13.889 12.5486 13.6925L8.47 9.44398L2.47139 15.6925C2.08891 16.0909 1.45588 16.1039 1.05747 15.7214C0.659058 15.3389 0.646139 14.7059 1.02861 14.3075L7.74861 7.30747C7.93719 7.11104 8.19771 7 8.47 7C8.7423 7 9.00282 7.11104 9.19139 7.30747L13.27 11.556L18.1033 6.52134L14.6598 3.21554Z" fill="#464647"/>
</svg>
