<svg width="26" height="26" viewBox="0 0 26 26" fill="none" xmlns="http://www.w3.org/2000/svg">
<g clip-path="url(#clip0_1_120)">
<path d="M23.834 3.15053L17.5785 3.15055V1.59352C17.5785 1.16188 17.2289 0.812271 16.7973 0.812271C16.3656 0.812271 16.016 1.16188 16.016 1.59352V3.15016H9.76602V1.59352C9.76602 1.16188 9.41641 0.812271 8.98477 0.812271C8.55313 0.812271 8.20352 1.16188 8.20352 1.59352V3.15016H1.95898C1.09609 3.15016 0.396484 3.84977 0.396484 4.71266V24.2439C0.396484 25.1068 1.09609 25.8064 1.95898 25.8064H23.834C24.6969 25.8064 25.3965 25.1068 25.3965 24.2439V4.71266C25.3965 3.85014 24.6969 3.15053 23.834 3.15053ZM23.834 24.2439H1.95898V4.71266H8.20352V5.49977C8.20352 5.93139 8.55313 6.28102 8.98477 6.28102C9.41641 6.28102 9.76602 5.93139 9.76602 5.49977V4.71305H16.016V5.50016C16.016 5.9318 16.3656 6.28141 16.7973 6.28141C17.2289 6.28141 17.5785 5.9318 17.5785 5.50016V4.71305H23.834V24.2439ZM18.3652 13.3068H19.9277C20.359 13.3068 20.709 12.9568 20.709 12.5255V10.963C20.709 10.5318 20.359 10.1818 19.9277 10.1818H18.3652C17.934 10.1818 17.584 10.5318 17.584 10.963V12.5255C17.584 12.9568 17.934 13.3068 18.3652 13.3068ZM18.3652 19.5564H19.9277C20.359 19.5564 20.709 19.2068 20.709 18.7751V17.2126C20.709 16.7814 20.359 16.4314 19.9277 16.4314H18.3652C17.934 16.4314 17.584 16.7814 17.584 17.2126V18.7751C17.584 19.2072 17.934 19.5564 18.3652 19.5564ZM13.6777 16.4314H12.1152C11.684 16.4314 11.334 16.7814 11.334 17.2126V18.7751C11.334 19.2068 11.684 19.5564 12.1152 19.5564H13.6777C14.109 19.5564 14.459 19.2068 14.459 18.7751V17.2126C14.459 16.7818 14.109 16.4314 13.6777 16.4314ZM13.6777 10.1818H12.1152C11.684 10.1818 11.334 10.5318 11.334 10.963V12.5255C11.334 12.9568 11.684 13.3068 12.1152 13.3068H13.6777C14.109 13.3068 14.459 12.9568 14.459 12.5255V10.963C14.459 10.5314 14.109 10.1818 13.6777 10.1818ZM7.42773 10.1818H5.86523C5.43398 10.1818 5.08398 10.5318 5.08398 10.963V12.5255C5.08398 12.9568 5.43398 13.3068 5.86523 13.3068H7.42773C7.85898 13.3068 8.20898 12.9568 8.20898 12.5255V10.963C8.20898 10.5314 7.85898 10.1818 7.42773 10.1818ZM7.42773 16.4314H5.86523C5.43398 16.4314 5.08398 16.7814 5.08398 17.2126V18.7751C5.08398 19.2068 5.43398 19.5564 5.86523 19.5564H7.42773C7.85898 19.5564 8.20898 19.2068 8.20898 18.7751V17.2126C8.20898 16.7818 7.85898 16.4314 7.42773 16.4314Z" fill="#868D94"/>
</g>
<defs>
<clipPath id="clip0_1_120">
<rect width="25" height="25" fill="white" transform="translate(0.396484 0.809509)"/>
</clipPath>
</defs>
</svg>
