<svg width="20" height="20" viewBox="0 0 20 20" fill="none" xmlns="http://www.w3.org/2000/svg">
<path d="M1.25 0V20H17.5V17.5195H18.75V16.2695H17.5V13.7598H18.75V12.5098H17.5V7.50977H18.75V6.25977H17.5V3.75977H18.75V2.50977H17.5V0H1.25ZM2.5 1.25H16.25V18.75H2.5V1.25ZM3.75 5H10V3.75H3.75V5ZM3.75 7.5H10V6.25H3.75V7.5ZM13.125 16.2109C13.3789 16.2109 13.6165 16.1654 13.8379 16.0742C14.0592 15.9831 14.2546 15.8529 14.4238 15.6836C14.5931 15.5143 14.7233 15.319 14.8145 15.0977C14.9056 14.8763 14.9544 14.6354 14.9609 14.375C14.9609 14.1211 14.9154 13.8835 14.8242 13.6621C14.7331 13.4408 14.6029 13.2487 14.4336 13.0859C14.2643 12.9232 14.069 12.7897 13.8477 12.6855C13.6263 12.5814 13.3854 12.5326 13.125 12.5391C12.8711 12.5391 12.6335 12.5879 12.4121 12.6855C12.1908 12.7832 11.9987 12.9134 11.8359 13.0762C11.6732 13.2389 11.5397 13.4342 11.4355 13.6621C11.3314 13.89 11.2826 14.1276 11.2891 14.375C11.2891 14.6289 11.3379 14.8665 11.4355 15.0879C11.5332 15.3092 11.6634 15.5046 11.8262 15.6738C11.9889 15.8431 12.1842 15.9733 12.4121 16.0645C12.64 16.1556 12.8776 16.2044 13.125 16.2109ZM13.125 13.7109C13.3138 13.7109 13.4701 13.7728 13.5938 13.8965C13.7174 14.0202 13.7826 14.1797 13.7891 14.375C13.7891 14.5638 13.7272 14.7201 13.6035 14.8438C13.4798 14.9674 13.3203 15.0326 13.125 15.0391C12.9362 15.0391 12.7799 14.9772 12.6562 14.8535C12.5326 14.7298 12.4674 14.5703 12.4609 14.375C12.4609 14.1862 12.5228 14.0299 12.6465 13.9062C12.7702 13.7826 12.9297 13.7174 13.125 13.7109ZM13.125 7.46094C13.3789 7.46094 13.6165 7.41536 13.8379 7.32422C14.0592 7.23307 14.2546 7.10286 14.4238 6.93359C14.5931 6.76432 14.7233 6.56901 14.8145 6.34766C14.9056 6.1263 14.9544 5.88542 14.9609 5.625C14.9609 5.37109 14.9154 5.13346 14.8242 4.91211C14.7331 4.69076 14.6029 4.4987 14.4336 4.33594C14.2643 4.17318 14.069 4.03971 13.8477 3.93555C13.6263 3.83138 13.3854 3.78255 13.125 3.78906C12.8711 3.78906 12.6335 3.83789 12.4121 3.93555C12.1908 4.0332 11.9987 4.16341 11.8359 4.32617C11.6732 4.48893 11.5397 4.68424 11.4355 4.91211C11.3314 5.13997 11.2826 5.3776 11.2891 5.625C11.2891 5.87891 11.3379 6.11654 11.4355 6.33789C11.5332 6.55924 11.6634 6.75456 11.8262 6.92383C11.9889 7.0931 12.1842 7.22331 12.4121 7.31445C12.64 7.4056 12.8776 7.45443 13.125 7.46094ZM13.125 4.96094C13.3138 4.96094 13.4701 5.02279 13.5938 5.14648C13.7174 5.27018 13.7826 5.42969 13.7891 5.625C13.7891 5.8138 13.7272 5.97005 13.6035 6.09375C13.4798 6.21745 13.3203 6.28255 13.125 6.28906C12.9362 6.28906 12.7799 6.22721 12.6562 6.10352C12.5326 5.97982 12.4674 5.82031 12.4609 5.625C12.4609 5.4362 12.5228 5.27995 12.6465 5.15625C12.7702 5.03255 12.9297 4.96745 13.125 4.96094ZM3.75 13.75H10V12.5H3.75V13.75ZM3.75 16.25H10V15H3.75V16.25Z" fill="#1C1C1C"/>
</svg>
