<svg width="15" height="9" viewBox="0 0 15 9" fill="none" xmlns="http://www.w3.org/2000/svg">
<path d="M7.92295 6.93037L13.7921 1.06907C13.8491 1.01179 13.917 0.966532 13.9918 0.935971C14.0666 0.905409 14.1467 0.890167 14.2275 0.891146C14.3083 0.892125 14.3881 0.909306 14.4621 0.941672C14.5361 0.974037 14.6029 1.02093 14.6585 1.07957C14.7723 1.19951 14.8349 1.35913 14.833 1.52449C14.831 1.68986 14.7646 1.84794 14.648 1.96515L8.34474 8.25962C8.28819 8.31657 8.22084 8.36166 8.14665 8.39228C8.07246 8.42289 7.99292 8.43841 7.91266 8.43792C7.83241 8.43743 7.75305 8.42094 7.67924 8.38943C7.60543 8.35792 7.53865 8.312 7.48279 8.25438L1.01155 1.62912C0.897017 1.51052 0.833008 1.35208 0.833008 1.1872C0.833008 1.02233 0.897017 0.863892 1.01155 0.745287C1.06782 0.687334 1.13516 0.641264 1.20956 0.609804C1.28397 0.578344 1.36393 0.562134 1.44471 0.562134C1.52549 0.562134 1.60546 0.578344 1.67986 0.609804C1.75426 0.641264 1.8216 0.687334 1.87788 0.745287L7.92295 6.93037Z" fill="url(#paint0_linear_267_827)"/>
<defs>
<linearGradient id="paint0_linear_267_827" x1="0.833008" y1="4.50003" x2="14.833" y2="4.50003" gradientUnits="userSpaceOnUse">
<stop stop-color="#C04848"/>
<stop offset="1" stop-color="#480048"/>
</linearGradient>
</defs>
</svg>
