<svg width="28" height="28" viewBox="0 0 28 28" fill="none" xmlns="http://www.w3.org/2000/svg">
<path d="M2.23031 10.1909H25.5636M2.23031 18.5243H25.5636M1.39697 14.3576C1.39697 15.9991 1.72029 17.6246 2.34848 19.1411C2.97666 20.6577 3.89741 22.0357 5.05814 23.1964C6.21887 24.3572 7.59686 25.2779 9.11343 25.9061C10.63 26.5343 12.2554 26.8576 13.897 26.8576C15.5385 26.8576 17.1639 26.5343 18.6805 25.9061C20.1971 25.2779 21.5751 24.3572 22.7358 23.1964C23.8965 22.0357 24.8173 20.6577 25.4455 19.1411C26.0737 17.6246 26.397 15.9991 26.397 14.3576C26.397 11.0424 25.08 7.86297 22.7358 5.51877C20.3916 3.17457 17.2122 1.8576 13.897 1.8576C10.5818 1.8576 7.40234 3.17457 5.05814 5.51877C2.71393 7.86297 1.39697 11.0424 1.39697 14.3576Z" stroke="#868D94" stroke-width="2" stroke-linecap="round" stroke-linejoin="round"/>
<path d="M13.2014 1.8576C10.8616 5.60707 9.62109 9.93797 9.62109 14.3576C9.62109 18.7772 10.8616 23.1081 13.2014 26.8576M14.5903 1.8576C16.9301 5.60707 18.1705 9.93797 18.1705 14.3576C18.1705 18.7772 16.9301 23.1081 14.5903 26.8576" stroke="#868D94" stroke-width="2" stroke-linecap="round" stroke-linejoin="round"/>
</svg>
