<svg width="20" height="20" viewBox="0 0 20 20" fill="none" xmlns="http://www.w3.org/2000/svg">
<path d="M9.375 7.5C9.98047 7.5 10.5469 7.61393 11.0742 7.8418C11.6016 8.06966 12.0638 8.38216 12.4609 8.7793C12.8581 9.17643 13.1706 9.63867 13.3984 10.166C13.6263 10.6934 13.7435 11.263 13.75 11.875C13.75 12.4805 13.6361 13.0469 13.4082 13.5742C13.1803 14.1016 12.8678 14.5638 12.4707 14.9609C12.0736 15.3581 11.6113 15.6706 11.084 15.8984C10.5566 16.1263 9.98698 16.2435 9.375 16.25C8.76953 16.25 8.20312 16.1361 7.67578 15.9082C7.14844 15.6803 6.6862 15.3678 6.28906 14.9707C5.89193 14.5736 5.57943 14.1113 5.35156 13.584C5.1237 13.0566 5.00651 12.487 5 11.875C5 11.2695 5.11393 10.7031 5.3418 10.1758C5.56966 9.64844 5.88216 9.1862 6.2793 8.78906C6.67643 8.39193 7.13867 8.07943 7.66602 7.85156C8.19336 7.6237 8.76302 7.50651 9.375 7.5ZM12.7539 11.25C12.6562 10.7292 12.4512 10.2572 12.1387 9.83398C11.8262 9.41081 11.4355 9.07552 10.9668 8.82812C11.1556 9.20573 11.2923 9.59961 11.377 10.0098C11.4616 10.4199 11.5169 10.8333 11.543 11.25H12.7539ZM10.5957 12.5H8.14453C8.15104 12.6042 8.16406 12.7474 8.18359 12.9297C8.20312 13.112 8.23568 13.3073 8.28125 13.5156C8.32682 13.724 8.38216 13.9323 8.44727 14.1406C8.51237 14.349 8.59049 14.541 8.68164 14.7168C8.77279 14.8926 8.8737 15.0358 8.98438 15.1465C9.09505 15.2572 9.22526 15.3125 9.375 15.3125C9.51172 15.3125 9.63542 15.2572 9.74609 15.1465C9.85677 15.0358 9.95443 14.8926 10.0391 14.7168C10.1237 14.541 10.2018 14.3457 10.2734 14.1309C10.3451 13.916 10.4004 13.7044 10.4395 13.4961C10.4785 13.2878 10.5143 13.0957 10.5469 12.9199C10.5794 12.7441 10.5957 12.6042 10.5957 12.5ZM8.14453 11.25H10.6055C10.599 11.1523 10.5827 11.0156 10.5566 10.8398C10.5306 10.6641 10.4948 10.472 10.4492 10.2637C10.4036 10.0553 10.3483 9.84375 10.2832 9.62891C10.2181 9.41406 10.14 9.21875 10.0488 9.04297C9.95768 8.86719 9.85677 8.7207 9.74609 8.60352C9.63542 8.48633 9.51172 8.43099 9.375 8.4375C9.23177 8.4375 9.10482 8.49284 8.99414 8.60352C8.88346 8.71419 8.78255 8.85742 8.69141 9.0332C8.60026 9.20898 8.52214 9.4043 8.45703 9.61914C8.39193 9.83398 8.33659 10.0456 8.29102 10.2539C8.24544 10.4622 8.21289 10.6543 8.19336 10.8301C8.17383 11.0059 8.15755 11.1458 8.14453 11.25ZM7.74414 8.84766C7.51628 8.97135 7.30794 9.11784 7.11914 9.28711C6.93034 9.45638 6.75781 9.64193 6.60156 9.84375C6.44531 10.0456 6.31836 10.2669 6.2207 10.5078C6.12305 10.7487 6.04818 10.9961 5.99609 11.25H7.20703C7.23307 10.8398 7.28516 10.4329 7.36328 10.0293C7.44141 9.62565 7.56836 9.23177 7.74414 8.84766ZM5.99609 12.5C6.08724 13.0078 6.28581 13.4701 6.5918 13.8867C6.89779 14.3034 7.27539 14.6387 7.72461 14.8926C7.55534 14.5215 7.4349 14.1341 7.36328 13.7305C7.29167 13.3268 7.23958 12.9167 7.20703 12.5H5.99609ZM10.9766 14.9219C11.4388 14.6745 11.8262 14.3392 12.1387 13.916C12.4512 13.4928 12.6562 13.0208 12.7539 12.5H11.543C11.5104 12.9102 11.4518 13.3203 11.3672 13.7305C11.2826 14.1406 11.1523 14.5378 10.9766 14.9219ZM10.8887 0L16.25 5.36133V18.75H2.5V0H10.8887ZM11.25 2.13867V5H14.1113L11.25 2.13867ZM3.75 17.5H15V6.25H10V1.25H3.75V17.5Z" fill="#1C1C1C"/>
</svg>
