<svg width="33" height="33" viewBox="0 0 33 33" fill="none" xmlns="http://www.w3.org/2000/svg">
<g clip-path="url(#clip0_1_307)">
<path d="M24.7297 24.7057C22.4505 26.443 19.6752 27.4055 16.8097 27.4524C7.4764 27.4524 2.14307 16.7857 2.14307 16.7857C3.80159 13.6949 6.10191 10.9945 8.88973 8.8657M14.0097 6.43904C14.9275 6.22421 15.8672 6.11682 16.8097 6.11904C26.1431 6.11904 31.4764 16.7857 31.4764 16.7857C30.667 18.2998 29.7018 19.7254 28.5964 21.039M19.6364 19.6124C19.2702 20.0054 18.8286 20.3206 18.3379 20.5392C17.8473 20.7578 17.3176 20.8754 16.7805 20.8849C16.2434 20.8943 15.71 20.7955 15.2119 20.5944C14.7138 20.3932 14.2614 20.0937 13.8815 19.7139C13.5017 19.3341 13.2023 18.8816 13.0011 18.3836C12.7999 17.8855 12.7011 17.352 12.7106 16.8149C12.7201 16.2778 12.8376 15.7482 13.0562 15.2575C13.2749 14.7668 13.5901 14.3252 13.9831 13.959" stroke="#868D94" stroke-width="2" stroke-linecap="round" stroke-linejoin="round"/>
<path d="M2.14307 2.11904L31.4764 31.4524" stroke="#868D94" stroke-width="2" stroke-linecap="round" stroke-linejoin="round"/>
</g>
<defs>
<clipPath id="clip0_1_307">
<rect width="32" height="32" fill="white" transform="translate(0.80957 0.785706)"/>
</clipPath>
</defs>
</svg>
