<svg width="33" height="33" viewBox="0 0 33 33" fill="none" xmlns="http://www.w3.org/2000/svg">
<g clip-path="url(#clip0_42_20)">
<path d="M24.7295 24.7057C22.4503 26.4431 19.675 27.4055 16.8095 27.4524C7.47621 27.4524 2.14288 16.7857 2.14288 16.7857C3.8014 13.6949 6.10172 10.9945 8.88954 8.86572M14.0095 6.43905C14.9273 6.22422 15.867 6.11684 16.8095 6.11905C26.1429 6.11905 31.4762 16.7857 31.4762 16.7857C30.6668 18.2999 29.7016 19.7254 28.5962 21.0391M19.6362 19.6124C19.27 20.0054 18.8284 20.3206 18.3377 20.5392C17.8471 20.7578 17.3174 20.8754 16.7803 20.8849C16.2432 20.8944 15.7098 20.7956 15.2117 20.5944C14.7136 20.3932 14.2612 20.0938 13.8813 19.7139C13.5015 19.3341 13.2021 18.8816 13.0009 18.3836C12.7997 17.8855 12.7009 17.352 12.7104 16.8149C12.7199 16.2778 12.8374 15.7482 13.056 15.2575C13.2747 14.7669 13.5899 14.3253 13.9829 13.9591" stroke="#868D94" stroke-width="2" stroke-linecap="round" stroke-linejoin="round"/>
</g>
<defs>
<clipPath id="clip0_42_20">
<rect width="32" height="32" fill="white" transform="translate(0.80954 0.785706)"/>
</clipPath>
</defs>
</svg>
