<svg width="12" height="16" viewBox="0 0 12 16" fill="none" xmlns="http://www.w3.org/2000/svg">
<path d="M5.25 13.25H6.75V10.1188L7.95 11.3188L9 10.25L6 7.25L3 10.25L4.06875 11.3L5.25 10.1188V13.25ZM1.5 15.5C1.0875 15.5 0.7345 15.3533 0.441 15.0598C0.1475 14.7663 0.0005 14.413 0 14V2C0 1.5875 0.147 1.2345 0.441 0.941C0.735 0.6475 1.088 0.5005 1.5 0.5H7.5L12 5V14C12 14.4125 11.8532 14.7658 11.5597 15.0598C11.2662 15.3538 10.913 15.5005 10.5 15.5H1.5ZM6.75 5.75V2H1.5V14H10.5V5.75H6.75Z" fill="#C04848"/>
</svg>
