<svg width="16" height="14" viewBox="0 0 16 14" fill="none" xmlns="http://www.w3.org/2000/svg">
<path d="M8 10V5.5M8 5.5L5.75 7M8 5.5L10.25 7M1.25 2.5V10.6C1.25 11.44 1.25 11.86 1.4135 12.181C1.55731 12.4632 1.78677 12.6927 2.069 12.8365C2.38925 13 2.80925 13 3.64775 13H12.3522C13.1907 13 13.61 13 13.9303 12.8365C14.213 12.6925 14.4425 12.463 14.5865 12.181C14.75 11.86 14.75 11.44 14.75 10.6V4.9C14.75 4.06 14.75 3.64 14.5865 3.319C14.4427 3.03677 14.2132 2.80731 13.931 2.6635C13.61 2.5 13.19 2.5 12.35 2.5H8M1.25 2.5H8M1.25 2.5C1.25 2.10218 1.40804 1.72064 1.68934 1.43934C1.97064 1.15804 2.35218 1 2.75 1H5.50625C5.873 1 6.05675 1 6.22925 1.04125C6.38325 1.07875 6.52775 1.13875 6.66275 1.22125C6.81425 1.31425 6.944 1.444 7.20275 1.7035L8 2.5" stroke="#480048" stroke-width="1.5" stroke-linecap="round" stroke-linejoin="round"/>
</svg>
