<svg width="34" height="34" viewBox="0 0 34 34" fill="none" xmlns="http://www.w3.org/2000/svg">
<path d="M29.7078 1.41669H25.5428C23.7437 1.41669 22.667 2.49335 22.667 4.29252V8.45752C22.667 10.2567 23.7437 11.3334 25.5428 11.3334H29.7078C31.507 11.3334 32.5837 10.2567 32.5837 8.45752V4.29252C32.5837 2.49335 31.507 1.41669 29.7078 1.41669ZM30.6428 4.88752L27.2853 8.81169C27.1578 8.96752 26.9595 9.06669 26.7612 9.06669C26.747 9.06669 26.747 9.06669 26.7328 9.06669C26.5345 9.06669 26.3503 8.99585 26.2087 8.85419L24.6503 7.32419C24.367 7.04085 24.367 6.57335 24.6503 6.29002C24.9337 6.00669 25.4012 5.99252 25.6845 6.29002L26.6762 7.26752L29.5095 3.95252C29.7787 3.64085 30.232 3.61252 30.5437 3.86752C30.8695 4.12252 30.8978 4.59002 30.6428 4.88752Z" fill="#171717"/>
<path d="M12.7506 14.705C14.6127 14.705 16.1222 13.1955 16.1222 11.3333C16.1222 9.47122 14.6127 7.96167 12.7506 7.96167C10.8885 7.96167 9.37891 9.47122 9.37891 11.3333C9.37891 13.1955 10.8885 14.705 12.7506 14.705Z" fill="#171717"/>
<path d="M29.7072 11.3333H29.0413V17.8641L28.8572 17.7083C27.7522 16.7591 25.9672 16.7591 24.8622 17.7083L18.9688 22.7658C17.8638 23.715 16.0788 23.715 14.9738 22.7658L14.4922 22.3691C13.4863 21.4908 11.8855 21.4058 10.7522 22.1708L5.45384 25.7266C5.14217 24.9333 4.95801 24.0125 4.95801 22.9358V11.0641C4.95801 7.06915 7.06884 4.95831 11.0638 4.95831H22.6663V4.29248C22.6663 3.72581 22.7655 3.24415 22.9922 2.83331H11.0638C5.90717 2.83331 2.83301 5.90748 2.83301 11.0641V22.9358C2.83301 24.48 3.10217 25.8258 3.62634 26.9591C4.84467 29.6508 7.45134 31.1666 11.0638 31.1666H22.9355C28.0922 31.1666 31.1663 28.0925 31.1663 22.9358V11.0075C30.7555 11.2341 30.2738 11.3333 29.7072 11.3333Z" fill="#171717"/>
</svg>
