<svg width="12" height="12" viewBox="0 0 12 12" fill="none" xmlns="http://www.w3.org/2000/svg">
<g clip-path="url(#clip0_8_4589)">
<path d="M5.7375 6.24082C5.61232 6.11556 5.46368 6.01619 5.30008 5.94839C5.13648 5.8806 4.96113 5.8457 4.78404 5.8457C4.60695 5.8457 4.43159 5.8806 4.26799 5.94839C4.10439 6.01619 3.95576 6.11556 3.83057 6.24082L0.757202 9.31419C0.798747 9.87768 1.05147 10.4047 1.46483 10.7899C1.87819 11.1751 2.42172 11.3901 2.98674 11.3919H9.27727C9.71748 11.3918 10.1478 11.2616 10.5143 11.0176L5.7375 6.24082Z" fill="#F2994A"/>
<path d="M8.82785 4.20269C9.32415 4.20269 9.72649 3.80035 9.72649 3.30404C9.72649 2.80773 9.32415 2.4054 8.82785 2.4054C8.33154 2.4054 7.9292 2.80773 7.9292 3.30404C7.9292 3.80035 8.33154 4.20269 8.82785 4.20269Z" fill="#F2994A"/>
<path d="M9.27701 0.608093H2.98648C2.39086 0.608807 1.81984 0.845732 1.39867 1.2669C0.977507 1.68807 0.740582 2.25909 0.739868 2.85471L0.739868 8.06057L3.19497 5.60547C3.4036 5.39679 3.65129 5.23125 3.9239 5.11831C4.19651 5.00537 4.4887 4.94724 4.78378 4.94724C5.07886 4.94724 5.37105 5.00537 5.64366 5.11831C5.91627 5.23125 6.16396 5.39679 6.37259 5.60547L11.1493 10.3822C11.3933 10.0158 11.5235 9.58545 11.5236 9.14524V2.85471C11.5229 2.25909 11.286 1.68807 10.8648 1.2669C10.4437 0.845732 9.87263 0.608807 9.27701 0.608093V0.608093ZM8.82769 5.10133C8.47222 5.10133 8.12473 4.99592 7.82917 4.79843C7.5336 4.60094 7.30324 4.32024 7.1672 3.99183C7.03117 3.66341 6.99558 3.30204 7.06493 2.9534C7.13428 2.60476 7.30545 2.28451 7.55681 2.03315C7.80817 1.7818 8.12841 1.61062 8.47705 1.54127C8.82569 1.47193 9.18707 1.50752 9.51548 1.64355C9.84389 1.77958 10.1246 2.00995 10.3221 2.30551C10.5196 2.60107 10.625 2.94856 10.625 3.30403C10.625 3.7807 10.4356 4.23785 10.0986 4.57491C9.76151 4.91197 9.30436 5.10133 8.82769 5.10133Z" fill="#F2994A"/>
</g>
<defs>
<clipPath id="clip0_8_4589">
<rect width="10.7838" height="10.7838" fill="white" transform="translate(0.739868 0.608093)"/>
</clipPath>
</defs>
</svg>
