<svg width="36" height="36" viewBox="0 0 36 36" fill="none" xmlns="http://www.w3.org/2000/svg">
<g clip-path="url(#clip0_497_3271)">
<path fill-rule="evenodd" clip-rule="evenodd" d="M6.42903 29.8303C7.65197 12.563 8.26344 3.7862 8.26344 3.51443L5.01462 3.86032C3.57344 4.0662 1.97168 5.19238 1.97168 7.2512L4.21992 30.7609C4.21992 31.7903 4.63168 32.6138 5.04344 33.4374C5.86697 33.8491 6.48462 34.2609 6.89639 34.2609H7.71992C6.48462 33.0256 6.22315 32.3009 6.42903 29.8303Z" fill="#222222"/>
<path d="M17.9955 15.1509C19.701 15.1509 21.0837 13.7682 21.0837 12.0627C21.0837 10.3571 19.701 8.97443 17.9955 8.97443C16.2899 8.97443 14.9072 10.3571 14.9072 12.0627C14.9072 13.7682 16.2899 15.1509 17.9955 15.1509Z" fill="#222222"/>
<path fill-rule="evenodd" clip-rule="evenodd" d="M29.3186 15.5627C28.9068 15.1509 28.0833 14.945 27.6715 15.3568L21.9068 20.2979C21.4951 20.5038 21.4951 21.1215 21.9068 21.5332L23.1421 22.9744C23.5539 23.3862 23.5539 24.2097 22.9362 24.6215C22.7304 24.8274 22.5245 24.8274 22.1127 24.8274C21.7009 24.8274 21.4951 24.6215 21.2892 24.4156L17.5833 19.8862C17.1715 19.4744 16.348 19.2685 15.9362 19.6803L10.5833 23.7979L9.75977 30.1803C9.75977 31.2097 10.1715 33.4744 11.2009 33.6803L29.3186 34.9156C29.7304 34.9156 30.348 34.9156 30.7598 34.5038C31.1715 34.0921 31.7892 33.0627 31.9951 32.6509L33.2304 20.5038L29.3186 15.5627Z" fill="#222222"/>
<path fill-rule="evenodd" clip-rule="evenodd" d="M29.1125 34.7097L12.2302 33.2685C10.789 33.0627 9.55371 31.6215 9.55371 29.9744L11.6125 6.50383C11.8184 4.85677 13.2596 3.82736 14.9067 3.82736L31.789 5.26854C33.4361 5.47442 34.4655 6.9156 34.4655 8.56266L32.4067 32.0332C32.2008 33.6803 30.7596 34.9156 29.1125 34.7097Z" stroke="#222222" stroke-width="1.17647" stroke-linecap="round" stroke-linejoin="round"/>
</g>
<defs>
<clipPath id="clip0_497_3271">
<rect width="35" height="35" fill="white" transform="translate(0.495117 0.739136)"/>
</clipPath>
</defs>
</svg>
