<svg width="19" height="23" viewBox="0 0 19 23" fill="none" xmlns="http://www.w3.org/2000/svg">
<path d="M17.8636 9.68182C17.8636 16.0455 9.68182 21.5 9.68182 21.5C9.68182 21.5 1.5 16.0455 1.5 9.68182C1.5 7.51187 2.36201 5.43079 3.8964 3.8964C5.43079 2.36201 7.51186 1.5 9.68182 1.5C11.8518 1.5 13.9328 2.36201 15.4672 3.8964C17.0016 5.43079 17.8636 7.51187 17.8636 9.68182Z" stroke="black" stroke-width="2" stroke-linecap="round" stroke-linejoin="round"/>
<path d="M9.68182 12.4091C11.188 12.4091 12.4091 11.188 12.4091 9.68182C12.4091 8.17559 11.188 6.95455 9.68182 6.95455C8.17559 6.95455 6.95455 8.17559 6.95455 9.68182C6.95455 11.188 8.17559 12.4091 9.68182 12.4091Z" stroke="black" stroke-width="2" stroke-linecap="round" stroke-linejoin="round"/>
</svg>
