<svg width="21" height="21" viewBox="0 0 21 21" fill="none" xmlns="http://www.w3.org/2000/svg">
<path d="M5.25 8.75V7C5.25 4.10375 6.125 1.75 10.5 1.75C14.875 1.75 15.75 4.10375 15.75 7V8.75" stroke="#858585" stroke-width="1.5" stroke-linecap="round" stroke-linejoin="round"/>
<path d="M10.5 16.1875C11.7081 16.1875 12.6875 15.2081 12.6875 14C12.6875 12.7919 11.7081 11.8125 10.5 11.8125C9.29188 11.8125 8.3125 12.7919 8.3125 14C8.3125 15.2081 9.29188 16.1875 10.5 16.1875Z" stroke="#858585" stroke-width="1.5" stroke-linecap="round" stroke-linejoin="round"/>
<path d="M14.875 19.25H6.125C2.625 19.25 1.75 18.375 1.75 14.875V13.125C1.75 9.625 2.625 8.75 6.125 8.75H14.875C18.375 8.75 19.25 9.625 19.25 13.125V14.875C19.25 18.375 18.375 19.25 14.875 19.25Z" stroke="#858585" stroke-width="1.5" stroke-linecap="round" stroke-linejoin="round"/>
</svg>
