<svg width="31" height="25" viewBox="0 0 31 25" fill="none" xmlns="http://www.w3.org/2000/svg">
<path d="M1.18596 1.73308V0.943604C0.976577 0.943604 0.775771 1.02678 0.627716 1.17484C0.479661 1.32289 0.396484 1.5237 0.396484 1.73308H1.18596ZM29.607 1.73308H30.3965C30.3965 1.5237 30.3133 1.32289 30.1653 1.17484C30.0172 1.02678 29.8164 0.943604 29.607 0.943604V1.73308ZM1.18596 2.52255H29.607V0.943604H1.18596V2.52255ZM28.8175 1.73308V20.6804H30.3965V1.73308H28.8175ZM26.4491 23.0489H4.34385V24.6278H26.4491V23.0489ZM1.97543 20.6804V1.73308H0.396484V20.6804H1.97543ZM4.34385 23.0489C3.71571 23.0489 3.11329 22.7993 2.66913 22.3552C2.22496 21.911 1.97543 21.3086 1.97543 20.6804H0.396484C0.396484 21.7274 0.812367 22.7314 1.55264 23.4717C2.29292 24.2119 3.29695 24.6278 4.34385 24.6278V23.0489ZM28.8175 20.6804C28.8175 21.3086 28.568 21.911 28.1238 22.3552C27.6797 22.7993 27.0773 23.0489 26.4491 23.0489V24.6278C27.496 24.6278 28.5001 24.2119 29.2403 23.4717C29.9806 22.7314 30.3965 21.7274 30.3965 20.6804H28.8175Z" fill="#868D94"/>
<path d="M1.18555 1.73306L15.3961 15.9436L29.6066 1.73306" stroke="#868D94" stroke-linecap="round" stroke-linejoin="round"/>
</svg>
