<svg width="21" height="20" viewBox="0 0 21 20" fill="none" xmlns="http://www.w3.org/2000/svg">
<path d="M18.5728 6.255V11.7608C18.573 12.1947 18.4877 12.6244 18.3218 13.0254C18.1559 13.4263 17.9126 13.7906 17.6058 14.0974C17.299 14.4043 16.9348 14.6477 16.5339 14.8137C16.133 14.9797 15.7033 15.0651 15.2694 15.065H13.0669L11.2503 16.8817C11.2007 16.9342 11.141 16.976 11.0747 17.0045C11.0084 17.0331 10.937 17.0479 10.8649 17.0479C10.7927 17.0479 10.7213 17.0331 10.655 17.0045C10.5887 16.976 10.529 16.9342 10.4794 16.8817L8.66277 15.065H6.45861C6.02474 15.065 5.59512 14.9795 5.19428 14.8135C4.79345 14.6474 4.42926 14.404 4.1225 14.0972C3.81575 13.7904 3.57244 13.4261 3.40649 13.0252C3.24053 12.6243 3.15516 12.1947 3.15527 11.7608V6.255C3.15527 5.3789 3.5033 4.53869 4.1228 3.91919C4.74229 3.2997 5.58251 2.95167 6.45861 2.95167H15.2686C16.1447 2.95167 16.9849 3.2997 17.6044 3.91919C18.2239 4.53869 18.5728 5.3789 18.5728 6.255Z" stroke="#222222" stroke-width="1.5" stroke-linecap="round" stroke-linejoin="round"/>
<path d="M10.8645 9.44833C10.9368 9.44833 11.0084 9.4341 11.0752 9.40644C11.142 9.37877 11.2026 9.33823 11.2537 9.28712C11.3049 9.23601 11.3454 9.17533 11.3731 9.10855C11.4007 9.04177 11.415 8.9702 11.415 8.89792C11.415 8.82563 11.4007 8.75406 11.3731 8.68728C11.3454 8.6205 11.3049 8.55982 11.2537 8.50871C11.2026 8.4576 11.142 8.41706 11.0752 8.3894C11.0084 8.36174 10.9368 8.3475 10.8645 8.3475C10.7186 8.3475 10.5786 8.40549 10.4753 8.50871C10.3721 8.61194 10.3141 8.75194 10.3141 8.89792C10.3141 9.0439 10.3721 9.1839 10.4753 9.28712C10.5786 9.39034 10.7186 9.44833 10.8645 9.44833ZM14.7187 9.44833C14.791 9.44833 14.8626 9.4341 14.9293 9.40644C14.9961 9.37877 15.0568 9.33823 15.1079 9.28712C15.159 9.23601 15.1996 9.17533 15.2272 9.10855C15.2549 9.04177 15.2691 8.9702 15.2691 8.89792C15.2691 8.82563 15.2549 8.75406 15.2272 8.68728C15.1996 8.6205 15.159 8.55982 15.1079 8.50871C15.0568 8.4576 14.9961 8.41706 14.9293 8.3894C14.8626 8.36174 14.791 8.3475 14.7187 8.3475C14.5727 8.3475 14.4327 8.40549 14.3295 8.50871C14.2263 8.61194 14.1683 8.75194 14.1683 8.89792C14.1683 9.0439 14.2263 9.1839 14.3295 9.28712C14.4327 9.39034 14.5727 9.44833 14.7187 9.44833ZM7.01038 9.44833C7.08266 9.44833 7.15423 9.4341 7.22101 9.40644C7.28779 9.37877 7.34847 9.33823 7.39958 9.28712C7.45069 9.23601 7.49124 9.17533 7.5189 9.10855C7.54656 9.04177 7.56079 8.9702 7.56079 8.89792C7.56079 8.82563 7.54656 8.75406 7.5189 8.68728C7.49124 8.6205 7.45069 8.55982 7.39958 8.50871C7.34847 8.4576 7.28779 8.41706 7.22101 8.3894C7.15423 8.36174 7.08266 8.3475 7.01038 8.3475C6.8644 8.3475 6.7244 8.40549 6.62117 8.50871C6.51795 8.61194 6.45996 8.75194 6.45996 8.89792C6.45996 9.0439 6.51795 9.1839 6.62117 9.28712C6.7244 9.39034 6.8644 9.44833 7.01038 9.44833Z" stroke="#222222" stroke-width="1.5" stroke-linecap="round" stroke-linejoin="round"/>
</svg>
