<svg width="510" height="24" viewBox="0 0 510 24" fill="none" xmlns="http://www.w3.org/2000/svg">
<line x1="0.269775" y1="11.3175" x2="220.476" y2="11.3175" stroke="#E4E6EC" stroke-width="1.26984"/>
<path d="M250.973 18.6324C250.133 18.6324 249.371 18.4344 248.687 18.0384C248.003 17.6304 247.457 17.0844 247.049 16.4004C246.653 15.7164 246.455 14.9544 246.455 14.1144C246.455 13.2744 246.653 12.5184 247.049 11.8464C247.457 11.1744 248.003 10.6404 248.687 10.2444C249.371 9.83639 250.133 9.63239 250.973 9.63239C251.825 9.63239 252.593 9.83039 253.277 10.2264C253.961 10.6224 254.501 11.1624 254.897 11.8464C255.305 12.5184 255.509 13.2744 255.509 14.1144C255.509 14.9544 255.305 15.7164 254.897 16.4004C254.501 17.0844 253.961 17.6304 253.277 18.0384C252.593 18.4344 251.825 18.6324 250.973 18.6324ZM250.973 16.7244C251.465 16.7244 251.897 16.6164 252.269 16.4004C252.653 16.1724 252.947 15.8604 253.151 15.4644C253.367 15.0684 253.475 14.6184 253.475 14.1144C253.475 13.6104 253.367 13.1664 253.151 12.7824C252.935 12.3984 252.641 12.0984 252.269 11.8824C251.897 11.6544 251.465 11.5404 250.973 11.5404C250.493 11.5404 250.061 11.6544 249.677 11.8824C249.305 12.0984 249.011 12.3984 248.795 12.7824C248.591 13.1664 248.489 13.6104 248.489 14.1144C248.489 14.6184 248.591 15.0684 248.795 15.4644C249.011 15.8604 249.305 16.1724 249.677 16.4004C250.061 16.6164 250.493 16.7244 250.973 16.7244ZM257.283 18.4524V9.81239H259.263V18.4524H257.283ZM259.263 13.6464L258.579 13.3044C258.579 12.2124 258.819 11.3304 259.299 10.6584C259.791 9.97439 260.529 9.63239 261.513 9.63239C261.945 9.63239 262.335 9.71039 262.683 9.86639C263.031 10.0224 263.355 10.2744 263.655 10.6224L262.359 11.9544C262.203 11.7864 262.029 11.6664 261.837 11.5944C261.645 11.5224 261.423 11.4864 261.171 11.4864C260.619 11.4864 260.163 11.6604 259.803 12.0084C259.443 12.3564 259.263 12.9024 259.263 13.6464Z" fill="#868D94"/>
<line x1="289.27" y1="11.3175" x2="509.476" y2="11.3175" stroke="#E4E6EC" stroke-width="1.26984"/>
</svg>
