<svg width="20" height="20" viewBox="0 0 20 20" fill="none" xmlns="http://www.w3.org/2000/svg">
<rect width="20" height="20" fill="#F5F5F5"/>
<g clip-path="url(#clip0_0_1)">
<rect width="1728" height="923" transform="translate(-44 -111)" fill="#FDFDFD"/>
<mask id="path-1-inside-1_0_1" fill="white">
<path d="M-44 -111H203V812H-44V-111Z"/>
</mask>
<path d="M-44 -111H203V812H-44V-111Z" fill="white"/>
<path d="M202 -111V812H204V-111H202Z" fill="#1C1C1C" fill-opacity="0.1" mask="url(#path-1-inside-1_0_1)"/>
<path d="M-28 10C-28 4.4087 -28 1.61305 -27.0866 -0.5922C-25.8686 -3.53254 -23.5325 -5.86863 -20.5922 -7.08655C-18.3869 -8 -15.5913 -8 -10 -8H169C174.591 -8 177.387 -8 179.592 -7.08655C182.533 -5.86863 184.869 -3.53254 186.087 -0.5922C187 1.61305 187 4.4087 187 10C187 15.5913 187 18.3869 186.087 20.5922C184.869 23.5325 182.533 25.8686 179.592 27.0866C177.387 28 174.591 28 169 28H-10C-15.5913 28 -18.3869 28 -20.5922 27.0866C-23.5325 25.8686 -25.8686 23.5325 -27.0866 20.5922C-28 18.3869 -28 15.5913 -28 10Z" fill="#1C1C1C" fill-opacity="0.05"/>
<path d="M7.81261 9.09609C7.90765 9.04123 7.98656 8.96231 8.04142 8.86727C8.09627 8.77223 8.12514 8.66442 8.12511 8.55469V2.92969C8.12456 2.83004 8.10018 2.73198 8.05402 2.64367C8.00786 2.55536 7.94126 2.47936 7.85976 2.42202C7.77826 2.36469 7.68424 2.32766 7.58553 2.31405C7.48681 2.30043 7.38628 2.31062 7.2923 2.34375C5.46807 2.98939 3.93396 4.26457 2.96575 5.94005C1.99755 7.61554 1.65875 9.58145 2.01027 11.4844C2.02849 11.5828 2.07008 11.6754 2.13153 11.7544C2.19298 11.8333 2.27249 11.8964 2.3634 11.9383C2.44531 11.9766 2.53468 11.9963 2.62511 11.9961C2.73481 11.9961 2.84259 11.9673 2.93761 11.9125L7.81261 9.09609ZM6.87511 3.87656V8.19375L3.13449 10.3523C3.12511 10.2344 3.12511 10.1156 3.12511 10C3.12622 8.73309 3.4769 7.49106 4.13855 6.41066C4.80019 5.33025 5.74713 4.45337 6.87511 3.87656ZM18.1251 10C18.1257 11.7837 17.5394 13.518 16.4565 14.9354C15.3737 16.3528 13.8545 17.3745 12.1334 17.8428C10.4122 18.3111 8.58484 18.2 6.9331 17.5267C5.28137 16.8534 3.8971 15.6553 2.99386 14.1172C2.95176 14.0461 2.92415 13.9675 2.91263 13.8857C2.90112 13.8039 2.90592 13.7207 2.92677 13.6407C2.94762 13.5608 2.9841 13.4859 3.0341 13.4201C3.0841 13.3544 3.14664 13.2992 3.21808 13.2578L9.37511 9.67422V2.5C9.37511 2.33424 9.44096 2.17527 9.55817 2.05806C9.67538 1.94085 9.83435 1.875 10.0001 1.875C11.418 1.87572 12.811 2.24729 14.0409 2.95282C15.2707 3.65834 16.2947 4.67328 17.0111 5.89688C17.0196 5.90938 17.0275 5.92188 17.0353 5.93516C17.0431 5.94844 17.0509 5.96406 17.0579 5.97812C17.759 7.20247 18.1269 8.58916 18.1251 10Z" fill="#1C1C1C"/>
</g>
<defs>
<clipPath id="clip0_0_1">
<rect width="1728" height="923" fill="white" transform="translate(-44 -111)"/>
</clipPath>
</defs>
</svg>
