<svg width="21" height="20" viewBox="0 0 21 20" fill="none" xmlns="http://www.w3.org/2000/svg">
<path d="M8.67699 9.09609C8.77203 9.04123 8.85094 8.96231 8.9058 8.86727C8.96065 8.77223 8.98952 8.66442 8.98949 8.55469V2.92969C8.98894 2.83004 8.96456 2.73198 8.9184 2.64367C8.87224 2.55536 8.80564 2.47936 8.72414 2.42202C8.64264 2.36469 8.54862 2.32766 8.44991 2.31405C8.35119 2.30043 8.25066 2.31062 8.15668 2.34375C6.33245 2.98939 4.79834 4.26457 3.83013 5.94005C2.86193 7.61554 2.52313 9.58145 2.87465 11.4844C2.89287 11.5828 2.93445 11.6754 2.99591 11.7544C3.05736 11.8333 3.13687 11.8964 3.22778 11.9383C3.30969 11.9766 3.39906 11.9963 3.48949 11.9961C3.59919 11.9961 3.70697 11.9673 3.80199 11.9125L8.67699 9.09609ZM7.73949 3.87656V8.19375L3.99887 10.3523C3.98949 10.2344 3.98949 10.1156 3.98949 10C3.9906 8.73309 4.34128 7.49106 5.00293 6.41066C5.66457 5.33025 6.61151 4.45337 7.73949 3.87656ZM17.9223 5.97812C17.9153 5.96406 17.9082 5.94922 17.8997 5.93516C17.8911 5.92109 17.884 5.90938 17.8754 5.89688C17.1591 4.67328 16.1351 3.65834 14.9053 2.95282C13.6754 2.24729 12.2824 1.87572 10.8645 1.875C10.6987 1.875 10.5398 1.94085 10.4226 2.05806C10.3053 2.17527 10.2395 2.33424 10.2395 2.5V9.67422L4.08246 13.2602C4.01102 13.3016 3.94848 13.3567 3.89848 13.4225C3.84848 13.4882 3.812 13.5632 3.79115 13.6431C3.7703 13.723 3.7655 13.8062 3.77701 13.888C3.78853 13.9698 3.81614 14.0485 3.85824 14.1195C4.76158 15.6578 6.14606 16.856 7.79803 17.5293C9.44999 18.2025 11.2776 18.3134 12.9989 17.8448C14.7201 17.3762 16.2393 16.3541 17.322 14.9364C18.4046 13.5186 18.9906 11.7839 18.9895 10C18.9913 8.58916 18.6233 7.20247 17.9223 5.97812ZM11.4895 3.15313C12.4807 3.24437 13.4404 3.54965 14.3021 4.04791C15.1639 4.54617 15.9073 5.22552 16.4809 6.03906L11.4895 8.94609V3.15313ZM10.8645 16.875C9.77341 16.8722 8.6985 16.6111 7.72774 16.113C6.75697 15.6149 5.91795 14.894 5.27934 14.0094L11.17 10.5789L11.1872 10.568L17.1067 7.12031C17.5899 8.16777 17.8017 9.31996 17.7227 10.4708C17.6437 11.6216 17.2764 12.734 16.6547 13.7057C16.0329 14.6773 15.1767 15.4768 14.1648 16.0307C13.153 16.5845 12.018 16.8749 10.8645 16.875Z" fill="#222222"/>
</svg>
