<svg width="18" height="19" viewBox="0 0 18 19" fill="none" xmlns="http://www.w3.org/2000/svg">
<path d="M4.125 0.82666C3.50368 0.82666 3 1.33034 3 1.95166V16.2017C3 16.823 3.50368 17.3267 4.125 17.3267H13.875C14.4963 17.3267 15 16.823 15 16.2017V5.32666L10.5 0.82666H4.125Z" fill="#20A464"/>
<path d="M4.125 17.3267C3.50368 17.3267 3 16.823 3 16.2017V16.0142C3 16.6355 3.50368 17.1392 4.125 17.1392H13.875C14.4963 17.1392 15 16.6355 15 16.0142V16.2017C15 16.823 14.4963 17.3267 13.875 17.3267H4.125Z" fill="#149456"/>
<path d="M4.125 0.82666C3.50368 0.82666 3 1.33034 3 1.95166V2.13916C3 1.51784 3.50368 1.01416 4.125 1.01416H10.6875L10.5 0.82666H4.125Z" fill="#38AE74"/>
<path d="M14.9993 9.17041V5.32666L14.3431 4.67041H11.1783C10.9277 4.67041 10.8022 4.97336 10.9794 5.15053L14.9993 9.17041Z" fill="url(#paint0_linear_307_729)"/>
<path d="M10.5 0.82666L15 5.32666H11.625C11.0037 5.32666 10.5 4.82298 10.5 4.20166V0.82666Z" fill="#8ED1B1"/>
<path fill-rule="evenodd" clip-rule="evenodd" d="M12 8.88916V14.3267H6V8.88916H12ZM8.625 9.63916H6.75V10.5767H8.625V9.63916ZM9.375 10.5767V9.63916H11.25V10.5767H9.375ZM8.625 11.1392H6.75V12.0767H8.625V11.1392ZM9.375 12.0767V11.1392H11.25V12.0767H9.375ZM8.625 12.6392H6.75V13.5767H8.625V12.6392ZM9.375 13.5767V12.6392H11.25V13.5767H9.375Z" fill="white"/>
<defs>
<linearGradient id="paint0_linear_307_729" x1="12.9479" y1="9.17041" x2="12.9479" y2="4.57666" gradientUnits="userSpaceOnUse">
<stop stop-color="#20A464"/>
<stop offset="1" stop-color="#207E55"/>
</linearGradient>
</defs>
</svg>
