<svg width="24" height="23" viewBox="0 0 24 23" fill="none" xmlns="http://www.w3.org/2000/svg">
<path d="M3.33231 11.7734C2.34481 10.0526 1.86772 8.6463 1.58022 7.2213C1.15522 5.11297 2.12814 3.05359 3.7396 1.73901C4.42085 1.1838 5.2021 1.37443 5.60522 2.0963L6.5146 3.72859C7.23543 5.02234 7.59585 5.66818 7.52502 6.35359C7.45314 7.04005 6.96668 7.59838 5.99481 8.71505L3.33231 11.7734ZM3.33231 11.7734C5.33127 15.2588 8.46772 18.3984 11.9573 20.3984M11.9573 20.3984C13.6792 21.3859 15.0844 21.863 16.5094 22.1505C18.6177 22.5755 20.6771 21.6026 21.9906 19.9911C22.5469 19.3098 22.3563 18.5286 21.6344 18.1255L20.0021 17.2161C18.7083 16.4953 18.0625 16.1348 17.3771 16.2057C16.6906 16.2776 16.1323 16.764 15.0156 17.7359L11.9573 20.3984Z" stroke="#868D94" stroke-width="1.5" stroke-linecap="round" stroke-linejoin="round"/>
</svg>
