<svg width="20" height="20" viewBox="0 0 20 20" fill="none" xmlns="http://www.w3.org/2000/svg">
<g clip-path="url(#clip0_381_3501)">
<path fill-rule="evenodd" clip-rule="evenodd" d="M13.3327 7.50033C13.3327 8.38438 12.9815 9.23223 12.3564 9.85735C11.7313 10.4825 10.8834 10.8337 9.99935 10.8337C9.11529 10.8337 8.26745 10.4825 7.64233 9.85735C7.0172 9.23223 6.66602 8.38438 6.66602 7.50033C6.66602 6.61627 7.0172 5.76842 7.64233 5.1433C8.26745 4.51818 9.11529 4.16699 9.99935 4.16699C10.8834 4.16699 11.7313 4.51818 12.3564 5.1433C12.9815 5.76842 13.3327 6.61627 13.3327 7.50033ZM11.666 7.50033C11.666 7.94235 11.4904 8.36628 11.1779 8.67884C10.8653 8.9914 10.4414 9.16699 9.99935 9.16699C9.55732 9.16699 9.1334 8.9914 8.82084 8.67884C8.50828 8.36628 8.33268 7.94235 8.33268 7.50033C8.33268 7.0583 8.50828 6.63437 8.82084 6.32181C9.1334 6.00925 9.55732 5.83366 9.99935 5.83366C10.4414 5.83366 10.8653 6.00925 11.1779 6.32181C11.4904 6.63437 11.666 7.0583 11.666 7.50033Z" fill="#1C1C1C"/>
<path fill-rule="evenodd" clip-rule="evenodd" d="M9.99967 0.833496C4.93717 0.833496 0.833008 4.93766 0.833008 10.0002C0.833008 15.0627 4.93717 19.1668 9.99967 19.1668C15.0622 19.1668 19.1663 15.0627 19.1663 10.0002C19.1663 4.93766 15.0622 0.833496 9.99967 0.833496ZM2.49967 10.0002C2.49967 11.7418 3.09384 13.3452 4.08967 14.6185C4.78921 13.7003 5.69147 12.9561 6.72604 12.4441C7.76061 11.9321 8.89951 11.6661 10.0538 11.6668C11.1933 11.6655 12.3181 11.9244 13.3423 12.4238C14.3665 12.9232 15.2631 13.6499 15.9638 14.5485C16.6859 13.6015 17.172 12.4962 17.3821 11.324C17.5921 10.1518 17.52 8.94644 17.1718 7.80765C16.8235 6.66886 16.209 5.62937 15.3792 4.77519C14.5495 3.92102 13.5282 3.27671 12.4 2.89559C11.2718 2.51446 10.069 2.40747 8.89122 2.58347C7.71344 2.75947 6.5945 3.21341 5.62698 3.90771C4.65946 4.60201 3.87118 5.51672 3.32737 6.57616C2.78355 7.6356 2.49983 8.8093 2.49967 10.0002ZM9.99967 17.5002C8.27793 17.503 6.60813 16.9106 5.27301 15.8235C5.81035 15.054 6.52567 14.4258 7.35807 13.9922C8.19047 13.5587 9.11531 13.3327 10.0538 13.3335C10.9807 13.3327 11.8943 13.553 12.7188 13.9763C13.5434 14.3995 14.255 15.0133 14.7947 15.7668C13.4492 16.8893 11.7519 17.5029 9.99967 17.5002Z" fill="#1C1C1C"/>
</g>
<defs>
<clipPath id="clip0_381_3501">
<rect width="20" height="20" fill="white"/>
</clipPath>
</defs>
</svg>
