<svg width="36" height="44" viewBox="0 0 36 44" fill="none" xmlns="http://www.w3.org/2000/svg">
<path d="M34.6932 14.8943C34.489 15.0201 29.9985 17.6346 30.0495 23.0735C30.106 29.5791 35.7525 31.7455 35.8174 31.7701C35.7668 31.9249 34.9146 34.8557 32.841 37.8824C31.0489 40.5045 29.1925 43.1118 26.2625 43.1662C23.3839 43.2189 22.4562 41.4582 19.1678 41.4582C15.8773 41.4582 14.8474 43.1117 12.1253 43.2189C9.29721 43.3259 7.14411 40.3873 5.33881 37.7797C1.64827 32.443 -1.17343 22.6978 2.61546 16.1212C4.49647 12.8551 7.85857 10.7858 11.5065 10.7324C14.2847 10.6799 16.9048 12.6 18.6041 12.6C20.2792 12.6 23.2814 10.3617 26.8201 10.6235C28.207 10.7262 32.1442 11.1402 34.6932 14.8943ZM24.6366 7.10051C26.1395 5.28413 27.1507 2.75451 26.8722 0.238464C24.7092 0.324246 22.093 1.67931 20.5415 3.49454C19.1522 5.10255 17.932 7.67795 18.2633 10.1426C20.6742 10.3289 23.1349 8.91801 24.6366 7.10051Z" fill="#464647"/>
</svg>
