<svg width="36" height="36" viewBox="0 0 36 36" fill="none" xmlns="http://www.w3.org/2000/svg">
<path d="M35.3176 18.4607C35.3176 16.9925 35.1985 15.921 34.9406 14.8099H18.1748V21.4368H28.016C27.8176 23.0837 26.7462 25.5639 24.3652 27.2304L24.3318 27.4523L29.6329 31.5589L30.0001 31.5956C33.3731 28.4805 35.3176 23.8972 35.3176 18.4607Z" fill="#4285F4"/>
<path d="M18.175 35.921C22.9964 35.921 27.0439 34.3336 30.0004 31.5956L24.3654 27.2304C22.8575 28.282 20.8337 29.0161 18.175 29.0161C13.4529 29.0161 9.44496 25.9012 8.01626 21.5956L7.80684 21.6134L2.29474 25.8793L2.22266 26.0797C5.15912 31.9129 11.1909 35.921 18.175 35.921Z" fill="#34A853"/>
<path d="M8.01569 21.5957C7.63872 20.4846 7.42055 19.294 7.42055 18.0639C7.42055 16.8337 7.63872 15.6432 7.99586 14.5322L7.98588 14.2955L2.4047 9.96112L2.22209 10.048C1.01183 12.4686 0.317383 15.1869 0.317383 18.0639C0.317383 20.9409 1.01183 23.659 2.22209 26.0797L8.01569 21.5957Z" fill="#FBBC05"/>
<path d="M18.175 7.11151C21.5281 7.11151 23.79 8.55991 25.0797 9.77031L30.1194 4.84966C27.0242 1.97269 22.9964 0.206818 18.175 0.206818C11.1909 0.206818 5.15913 4.21471 2.22266 10.048L7.99643 14.5322C9.44496 10.2266 13.4529 7.11151 18.175 7.11151Z" fill="#EB4335"/>
</svg>
