<svg width="36" height="36" viewBox="0 0 36 36" fill="none" xmlns="http://www.w3.org/2000/svg">
<path d="M35.4204 17.7068C35.4204 8.04106 27.5862 0.206818 17.9204 0.206818C8.25466 0.206818 0.42041 8.04106 0.42041 17.7068C0.42041 26.4424 6.8163 33.6822 15.1875 34.9959V22.7698H10.7478V17.7068H15.1875V13.852C15.1875 9.46983 17.7958 7.0438 21.7944 7.0438C23.7122 7.0438 25.7163 7.38901 25.7163 7.38901V11.6945H23.5108C21.3341 11.6945 20.6629 13.0465 20.6629 14.4274V17.7068H25.5149L24.7382 22.7698H20.6629V34.9959C29.0245 33.6822 35.4204 26.4424 35.4204 17.7068Z" fill="#1877F2"/>
<path d="M24.7282 22.7698L25.5049 17.7068H20.6529V14.4274C20.6529 13.0465 21.3337 11.6945 23.5008 11.6945H25.7063V7.389C25.7063 7.389 23.7022 7.04379 21.7844 7.04379C17.7857 7.04379 15.1775 9.46982 15.1775 13.852V17.7068H10.7378V22.7698H15.1775V34.9958C16.0693 35.1397 16.9803 35.2068 17.9104 35.2068C18.8405 35.2068 19.7515 35.1301 20.6433 34.9958V22.7698H24.7282Z" fill="white"/>
</svg>
