<svg width="25" height="25" viewBox="0 0 25 25" fill="none" xmlns="http://www.w3.org/2000/svg">
<path d="M11.4587 6.24998C11.4587 6.82528 11.925 7.29165 12.5003 7.29165C13.0756 7.29165 13.542 6.82528 13.542 6.24998C13.542 5.67468 13.0756 5.20831 12.5003 5.20831C11.925 5.20831 11.4587 5.67468 11.4587 6.24998Z" fill="#474747" stroke="#474747" stroke-width="1.25" stroke-miterlimit="10"/>
<path d="M11.4587 12.5C11.4587 13.0753 11.925 13.5416 12.5003 13.5416C13.0756 13.5416 13.542 13.0753 13.542 12.5C13.542 11.9247 13.0756 11.4583 12.5003 11.4583C11.925 11.4583 11.4587 11.9247 11.4587 12.5Z" fill="#474747" stroke="#474747" stroke-width="1.25" stroke-miterlimit="10"/>
<path d="M11.4587 18.75C11.4587 19.3253 11.925 19.7916 12.5003 19.7916C13.0756 19.7916 13.542 19.3253 13.542 18.75C13.542 18.1747 13.0756 17.7083 12.5003 17.7083C11.925 17.7083 11.4587 18.1747 11.4587 18.75Z" fill="#474747" stroke="#474747" stroke-width="1.25" stroke-miterlimit="10"/>
</svg>
