<svg width="17" height="17" viewBox="0 0 17 17" fill="none" xmlns="http://www.w3.org/2000/svg">
<path d="M14.875 4.23583C12.5162 4.00208 10.1433 3.88167 7.7775 3.88167C6.375 3.88167 4.9725 3.9525 3.57 4.09417L2.125 4.23583" stroke="#222222" stroke-width="1.5" stroke-linecap="round" stroke-linejoin="round"/>
<path d="M6.02051 3.52042L6.17634 2.59251C6.28967 1.91959 6.37467 1.41667 7.57176 1.41667H9.42759C10.6247 1.41667 10.7168 1.94792 10.823 2.59959L10.9788 3.52042" stroke="#222222" stroke-width="1.5" stroke-linecap="round" stroke-linejoin="round"/>
<path d="M13.3516 6.47417L12.8912 13.6071C12.8133 14.7192 12.7495 15.5833 10.7733 15.5833H6.22579C4.24954 15.5833 4.18579 14.7192 4.10788 13.6071L3.64746 6.47417" stroke="#222222" stroke-width="1.5" stroke-linecap="round" stroke-linejoin="round"/>
<path d="M7.31738 11.6875H9.67613" stroke="#222222" stroke-width="1.5" stroke-linecap="round" stroke-linejoin="round"/>
<path d="M6.72949 8.85417H10.2712" stroke="#222222" stroke-width="1.5" stroke-linecap="round" stroke-linejoin="round"/>
</svg>
