<svg width="23" height="20" viewBox="0 0 23 20" fill="none" xmlns="http://www.w3.org/2000/svg">
<path d="M11.5 7.5V18.75M11.5 7.5L15.25 11.25M11.5 7.5L7.74996 11.25M18.375 13.75C20.2737 13.75 21.5 12.2113 21.5 10.3125C21.4999 9.56077 21.2534 8.82979 20.7983 8.23151C20.3431 7.63323 19.7044 7.20064 18.98 7C18.8685 5.59807 18.2875 4.27471 17.3308 3.24387C16.3742 2.21302 15.0978 1.53495 13.7081 1.31928C12.3184 1.10361 10.8965 1.36295 9.67245 2.05536C8.44836 2.74778 7.49358 3.8328 6.96246 5.135C5.84424 4.82503 4.64868 4.97196 3.6388 5.54348C2.62892 6.115 1.88743 7.06428 1.57746 8.1825C1.26749 9.30072 1.41442 10.4963 1.98594 11.5062C2.55746 12.516 3.50674 13.2575 4.62496 13.5675" stroke="#464647" stroke-width="2" stroke-linecap="round" stroke-linejoin="round"/>
</svg>
